<?xml version="1.0" encoding="utf-8"?>
<!-- Generator: Adobe Illustrator 16.0.0, SVG Export Plug-In . SVG Version: 6.00 Build 0)  -->
<!DOCTYPE svg PUBLIC "-//W3C//DTD SVG 1.1//EN" "http://www.w3.org/Graphics/SVG/1.1/DTD/svg11.dtd">
<svg version="1.1" id="Layer_1" xmlns="http://www.w3.org/2000/svg" xmlns:xlink="http://www.w3.org/1999/xlink" x="0px" y="0px"
	 width="48px" height="48px" viewBox="0 0 48 48" enable-background="new 0 0 48 48" xml:space="preserve">
<g>
	<path fill="#F1F1F1" d="M36.646,40.743c-4.119,0-8.805-1.505-13.924-4.474c-4.114-2.385-8.366-3.146-12.118-3.817
		c-3.833-0.687-7.742-1.397-10.076-4.05c0.247,10.718,12,5.896,23.264,12.426c13.862,8.037,22.356,3.617,23.647-5.813
		C45.195,38.637,41.438,40.743,36.646,40.743z"/>
	<path fill="#F1F1F1" d="M12.374,26.923c3.569,0.578,7.613,1.233,11.679,3.365c4.237,2.222,8.048,3.349,11.331,3.349h0.001
		c2.92,0,5.325-0.932,6.956-2.695c1.58-1.707,2.415-4.15,2.415-7.066c0-8.798-9.393-15.956-20.935-15.956
		c-12.99,0-20.439,4.53-20.439,12.429C3.38,25.466,6.958,26.046,12.374,26.923z M15.315,12.636c3.254,0,5.892,2.042,5.892,4.559
		c0,2.518-2.638,4.56-5.892,4.56c-3.253,0-5.891-2.042-5.891-4.56C9.424,14.678,12.062,12.636,15.315,12.636z"/>
	<path fill="#F1F1F1" d="M23.792,34.423c15.091,8.749,23.827,2.742,23.827-8.428S36.952,5.769,23.792,5.769
		S0.517,10.49,0.517,21.661C0.517,32.831,12.407,27.822,23.792,34.423z M23.82,6.918c12.095,0,21.935,7.606,21.935,16.956
		c0,3.172-0.927,5.851-2.68,7.747c-1.825,1.973-4.484,3.016-7.69,3.016h-0.001c-3.444,0-7.413-1.166-11.796-3.463
		c-3.921-2.056-7.88-2.697-11.374-3.263c-5.494-0.89-9.833-1.593-9.833-7.563C2.38,11.813,10.195,6.918,23.82,6.918z"/>
	<ellipse fill="#F1F1F1" cx="15.315" cy="17.196" rx="2.92" ry="2.26"/>
</g>
</svg>
