<?xml version="1.0" encoding="utf-8"?>
<!-- Generator: Adobe Illustrator 16.0.0, SVG Export Plug-In . SVG Version: 6.00 Build 0)  -->
<!DOCTYPE svg PUBLIC "-//W3C//DTD SVG 1.1//EN" "http://www.w3.org/Graphics/SVG/1.1/DTD/svg11.dtd">
<svg version="1.1" id="Capa_1" xmlns="http://www.w3.org/2000/svg" xmlns:xlink="http://www.w3.org/1999/xlink" x="0px" y="0px"
	 width="1000px" height="1000px" viewBox="0 0 1000 1000" enable-background="new 0 0 1000 1000" xml:space="preserve">
<path fill="#F1F1F1" d="M922.606,471.529c-16.71-43.479-35.013-91.496-64.4-128.275c-22.216-27.804-63.87-51.881-100.746-46.25
	c-0.479,0.073-3.56,0.745-8.913,1.942c1.331,9.228,2.011,18.583,2.011,28.039c0,26.248-5.153,51.743-15.318,75.776
	c-9.807,23.183-23.831,43.991-41.686,61.846c-17.854,17.855-38.663,31.88-61.846,41.685c-24.033,10.165-49.528,15.319-75.776,15.319
	s-51.742-5.154-75.775-15.319c-23.184-9.806-43.991-23.83-61.846-41.685s-31.88-38.663-41.685-61.846
	c-2.411-5.7-4.53-11.485-6.375-17.34C217.309,420.504,75.504,453.09,67.223,455.018c-7.299,1.699-16.184,2.713-22.735,6.199
	c-5.526,2.939-9.487,7.64-9.487,15.992v381.767c0,15.044,15.905,28.903,35.503,30.944l141.915,14.758l638.322,66.437
	c58.699,6.118,106.354-25.531,106.354-70.708c0-28.519-18.981-55.521-47.74-73.176c28.759-11.623,47.745-34.734,47.745-63.21
	c0-28.471-18.984-55.474-47.693-73.079C994.255,656.379,946.321,533.237,922.606,471.529z M735.726,897.084L110,831.93v-62.544
	l625.726,65.104c58.701,6.123,106.347,25.06,106.347,42.329C842.072,894.095,794.427,903.205,735.726,897.084z M735.726,772.423
	L110,707.269v-62.593l625.726,65.202c58.701,6.122,106.347,25.054,106.347,42.328C842.072,769.478,794.427,778.546,735.726,772.423z
	 M735.726,647.762L110,582.652V520.06l625.726,65.11c58.701,6.117,106.347,25.103,106.347,42.373
	C842.072,644.865,794.427,653.88,735.726,647.762z"/>
<path fill="#F1F1F1" d="M421.306,326.986c0,15.769,2.721,30.899,7.701,44.961c18.506,52.241,68.341,89.665,126.924,89.665
	c74.353,0,134.626-60.273,134.626-134.626c0-4.971-0.277-9.876-0.803-14.708c-7.328-67.432-64.441-119.918-133.823-119.918
	c-7.086,0-14.042,0.552-20.832,1.606c-4.607-9.426-9.713-18.638-15.216-27.62c-5.547-9.054-11.493-17.874-17.715-26.451
	c-7.626-10.512-15.666-20.659-23.911-30.412c-15.331-18.135-31.972-35.302-50.263-50.478c-16.017-13.29-33.049-26.093-52.186-34.563
	c-10.824-4.79-23.233-3.264-29.708,7.79c-5.471,9.34-3.039,24.917,7.79,29.709c8.982,3.976,17.516,8.929,25.642,14.436
	c2.348,1.591,4.677,3.209,6.968,4.881c0.835,0.61,3.828,2.892,4.616,3.473c3.471,2.748,6.903,5.545,10.253,8.44
	c8.839,7.638,17.339,15.672,25.455,24.075c8.545,8.847,16.76,18.018,24.546,27.541c2.212,2.706,4.407,5.427,6.557,8.184
	c0.005,0.006,0.009,0.011,0.015,0.017c0.077,0.104,0.162,0.216,0.257,0.34c0.905,1.195,1.813,2.391,2.707,3.595
	c0.032,0.045,0.064,0.09,0.098,0.134c3.533,4.762,6.996,9.577,10.328,14.483c2.328,3.427,4.607,6.888,6.839,10.38
	c4.352,6.812,8.504,13.752,12.369,20.852c0.914,1.68,1.812,3.366,2.701,5.059C450.468,230.379,421.306,275.273,421.306,326.986z"/>
</svg>
